# xmcd
#
# Track frame offsets: 
#        150
#        29000
#        41129
#        67290
#        88715
#        112947
#        157927
#        189079
#        230296
#
# Disc length: 3720 seconds
#
# Revision: 1
# Processed by: cddbd v1.5.2PL0 Copyright (c) Steve Scherf et al.
# Submitted via: ExactAudioCopy v0.99pb5
#
DISCID=6f0e8609
DTITLE=DJ Cheb i Sabbah - Krishna Lila
DYEAR=2002
DGENRE=New Age
TTITLE0=Narajanma Bandage (The South)
TTITLE1=Violin Solo (The South)
TTITLE2=Maname Diname (The South)
TTITLE3=Anjali (The South)
TTITLE4=Raja Vedalu (The South)
TTITLE5=Lagi Lagan (The North)
TTITLE6=Tum Bin Shyam (The North)
TTITLE7=Rupa Tujhe Deva (The North)
TTITLE8=Govinda (The North)
EXTD=YEAR: 2002
EXTT0=
EXTT1=
EXTT2=
EXTT3=
EXTT4=
EXTT5=
EXTT6=
EXTT7=
EXTT8=
PLAYORDER=
